<svg xmlns="http://www.w3.org/2000/svg" version="1.1" xmlns:xlink="http://www.w3.org/1999/xlink" xmlns:svgjs="http://svgjs.dev/svgjs" width="1000" height="750" viewBox="0 0 1000 750"><rect width="1000" height="750" fill="transparent"></rect><g transform="matrix(0.834,0,0,0.834,82.49454545454546,79.88638197496931)"><svg viewBox="0 0 396 280" data-background-color="#fbeaab" preserveAspectRatio="xMidYMid meet" height="707" width="1000" xmlns="http://www.w3.org/2000/svg" xmlns:xlink="http://www.w3.org/1999/xlink"><g id="tight-bounds" transform="matrix(1,0,0,1,0.2400000000000091,0.14009543650746537)"><svg viewBox="0 0 395.52 279.72" height="279.72" width="395.52"><g><svg viewBox="0 0 395.52 279.72" height="279.72" width="395.52"><g><svg viewBox="0 0 395.52 279.72" height="279.72" width="395.52"><g><svg viewBox="0 0 395.52 279.72" height="279.72" width="395.52"><g><svg viewBox="0 0 395.52 279.72" height="279.72" width="395.52"><g transform="matrix(1,0,0,1,120.80724302890813,73.92936372216631)"><svg viewBox="0 0 153.90551394218372 131.8612725556674" height="131.8612725556674" width="153.90551394218372"><g><svg xmlns="http://www.w3.org/2000/svg" xmlns:xlink="http://www.w3.org/1999/xlink" version="1.1" x="0" y="0" viewBox="5.724999904632568 11.487005233764648 90.23799133300781 77.31299591064453" enable-background="new 0 0 100 100" xml:space="preserve" height="131.8612725556674" width="153.90551394218372" class="icon-o-0" data-fill-palette-color="accent" id="o-0"><g fill="#454545" data-fill-palette-color="accent"><path d="M30.4 27.8c-0.9-0.9-2.4-0.9-3.3 0L6.4 48.5c-0.9 0.9-0.9 2.4 0 3.3l20.7 20.7c0.5 0.5 1 0.7 1.6 0.7s1.2-0.2 1.6-0.7c0.9-0.9 0.9-2.4 0-3.3L11.3 50.1l19.1-19.1C31.3 30.2 31.3 28.7 30.4 27.8z" fill="#fefefe" data-fill-palette-color="accent"></path><path d="M95.3 48.5L74.6 27.8c-0.9-0.9-2.4-0.9-3.3 0s-0.9 2.4 0 3.3l19.1 19.1L71.3 69.2c-0.9 0.9-0.9 2.4 0 3.3 0.5 0.5 1 0.7 1.6 0.7s1.2-0.2 1.6-0.7l20.7-20.7C96.2 50.9 96.2 49.4 95.3 48.5z" fill="#fefefe" data-fill-palette-color="accent"></path><path d="M61.1 11.6c-1.2-0.4-2.5 0.3-2.9 1.5L35.3 85.8c-0.4 1.2 0.3 2.5 1.5 2.9 0.2 0.1 0.5 0.1 0.7 0.1 1 0 1.9-0.6 2.2-1.6l22.9-72.8C63 13.2 62.3 11.9 61.1 11.6z" fill="#fefefe" data-fill-palette-color="accent"></path></g></svg></g></svg></g><path d="M75.762 99.038L72.416 97.929 74.905 90.418 84.718 93.67C84.712 95.018 84.611 96.258 84.416 97.392 84.223 98.519 83.941 99.641 83.57 100.76V100.76C82.622 103.621 81.056 105.524 78.874 106.468 76.697 107.42 74.037 107.376 70.896 106.335V106.335C67.84 105.322 65.747 103.657 64.616 101.341 63.492 99.027 63.443 96.323 64.469 93.227V93.227C65.113 91.283 66.121 89.538 67.492 87.993V87.993L70.258 90.393C69.112 91.544 68.291 92.867 67.795 94.362V94.362C67.222 96.092 67.344 97.673 68.161 99.106 68.978 100.539 70.372 101.582 72.342 102.235V102.235C74.397 102.916 76.107 103.014 77.474 102.528 78.831 102.047 79.776 101.003 80.308 99.397V99.397C80.586 98.558 80.784 97.678 80.902 96.758V96.758L76.951 95.448ZM89.021 86.585L87.258 90.434 69.124 82.128 70.887 78.279ZM97.388 72.299L91.137 82.916 73.949 72.796 76.097 69.148 90.274 77.495 94.377 70.526ZM99.028 70.446L83.315 58.161 87.138 53.271C88.88 51.042 90.463 49.675 91.884 49.169 93.305 48.653 94.709 48.938 96.096 50.022V50.022C97.029 50.752 97.625 51.575 97.884 52.49 98.141 53.395 98.045 54.264 97.595 55.095V55.095L97.7 55.177C98.702 54.352 99.679 53.959 100.631 53.998 101.587 54.033 102.569 54.444 103.578 55.233V55.233C105.014 56.356 105.726 57.747 105.715 59.408 105.709 61.073 105.012 62.793 103.623 64.569V64.569ZM88.659 56.965L92.148 59.693 93.661 57.758C94.365 56.857 94.736 56.094 94.771 55.47 94.807 54.846 94.504 54.282 93.862 53.78V53.78C93.257 53.308 92.652 53.191 92.047 53.431 91.447 53.666 90.773 54.261 90.026 55.216V55.216ZM96.401 59.692L94.787 61.756 98.883 64.959 100.58 62.789C101.297 61.872 101.651 61.057 101.642 60.346 101.633 59.635 101.267 58.996 100.544 58.431V58.431C99.238 57.41 97.857 57.83 96.401 59.692ZM116.144 46.292L118.588 48.789 110.379 56.826 96.425 42.573 104.635 34.536 107.065 37.018 101.88 42.094 104.943 45.222 109.767 40.499 112.19 42.973 107.366 47.696 110.96 51.368ZM114.763 31.253L117.963 35.583 119.054 34.777C120.134 33.979 120.795 33.213 121.037 32.481 121.285 31.744 121.124 30.99 120.554 30.219V30.219C119.992 29.458 119.331 29.112 118.572 29.179 117.818 29.242 116.89 29.681 115.788 30.495V30.495ZM121.813 37.006L120.003 38.343 124.554 44.5 121.149 47.017 109.294 30.976 113.971 27.519C116.148 25.91 118.052 25.116 119.685 25.136 121.318 25.156 122.734 25.975 123.931 27.595V27.595C124.627 28.537 124.987 29.566 125.011 30.682 125.033 31.807 124.723 32.926 124.081 34.04V34.04C129.161 35.865 132.456 37.033 133.966 37.544V37.544L130.19 40.335ZM134.293 18.967L142.13 33.398 138.409 35.418 130.572 20.988 125.813 23.572 124.131 20.475 137.369 13.285 139.052 16.382ZM154.129 10.576L155.787 15.699 157.077 15.282C158.355 14.869 159.225 14.353 159.687 13.735 160.157 13.116 160.243 12.349 159.948 11.437V11.437C159.657 10.537 159.141 9.999 158.399 9.821 157.664 9.641 156.645 9.762 155.341 10.184V10.184ZM158.984 18.272L156.843 18.965 159.2 26.249 155.172 27.552 149.032 8.575 154.566 6.784C157.14 5.951 159.199 5.804 160.741 6.342 162.283 6.88 163.364 8.107 163.984 10.023V10.023C164.344 11.138 164.359 12.228 164.026 13.293 163.69 14.366 163.04 15.329 162.077 16.181V16.181C166.313 19.526 169.066 21.682 170.336 22.646V22.646L165.868 24.092ZM188.258 20.079L183.752 20.793 181.588 16.33 174.402 17.469 173.715 22.385 169.218 23.098 173.033 2.215 178.138 1.405ZM174.902 13.8L180.027 12.987C178.034 8.948 176.912 6.663 176.662 6.134 176.405 5.606 176.213 5.185 176.087 4.873V4.873C175.979 6.069 175.584 9.045 174.902 13.8ZM189.745 20.109L189.231 0.169 195.436 0.009C198.264-0.063 200.326 0.288 201.621 1.063 202.922 1.831 203.595 3.096 203.641 4.856V4.856C203.671 6.04 203.415 7.024 202.874 7.805 202.338 8.58 201.607 9.058 200.68 9.239V9.239L200.683 9.373C201.957 9.621 202.882 10.125 203.457 10.884 204.038 11.644 204.345 12.664 204.378 13.944V13.944C204.425 15.766 203.804 17.201 202.515 18.248 201.227 19.302 199.456 19.859 197.203 19.917V19.917ZM193.553 3.532L193.667 7.96 196.122 7.897C197.266 7.867 198.09 7.668 198.594 7.298 199.099 6.929 199.341 6.337 199.32 5.522V5.522C199.3 4.755 199.005 4.214 198.435 3.9 197.872 3.586 196.984 3.444 195.772 3.475V3.475ZM196.373 11.241L193.753 11.309 193.887 16.507 196.64 16.436C197.804 16.406 198.658 16.161 199.201 15.702 199.745 15.242 200.005 14.554 199.981 13.636V13.636C199.938 11.979 198.736 11.181 196.373 11.241ZM221.75 1.948L225.93 2.474 224.317 15.28C224.133 16.742 223.645 17.982 222.854 19.001 222.056 20.019 221.001 20.742 219.691 21.171 218.386 21.607 216.887 21.719 215.195 21.505V21.505C212.653 21.185 210.76 20.284 209.518 18.802 208.275 17.319 207.796 15.446 208.082 13.183V13.183L209.688 0.428 213.869 0.955 212.343 13.067C212.15 14.597 212.315 15.757 212.836 16.548 213.366 17.332 214.338 17.814 215.751 17.992V17.992C217.124 18.165 218.165 17.933 218.874 17.298 219.583 16.655 220.034 15.569 220.226 14.04V14.04ZM238.925 9.786L234.33 25.552 230.266 24.367 234.861 8.602 229.661 7.086 230.648 3.702 245.111 7.918 244.125 11.302ZM261.975 19.361L254.613 34.039 250.828 32.141 258.191 17.463 253.35 15.035 254.931 11.884 268.396 18.639 266.816 21.789ZM274.118 39.55V39.55C273.128 41.055 271.808 41.884 270.158 42.037 268.498 42.192 266.704 41.635 264.775 40.367V40.367C263 39.2 261.649 37.832 260.722 36.262V36.262L262.884 32.974C263.675 34.216 264.392 35.195 265.035 35.913 265.678 36.631 266.322 37.203 266.969 37.628V37.628C267.748 38.14 268.441 38.383 269.049 38.356 269.657 38.33 270.153 38.024 270.536 37.441V37.441C270.751 37.114 270.851 36.762 270.838 36.384 270.826 36.016 270.72 35.597 270.519 35.129 270.318 34.661 269.846 33.809 269.101 32.573V32.573C268.394 31.428 267.931 30.467 267.712 29.692 267.498 28.92 267.428 28.14 267.503 27.353 267.587 26.564 267.886 25.78 268.397 25.002V25.002C269.369 23.525 270.632 22.695 272.187 22.512 273.736 22.326 275.392 22.812 277.155 23.972V23.972C278.025 24.544 278.787 25.188 279.439 25.904 280.088 26.626 280.719 27.455 281.333 28.392V28.392L278.393 30.394C277.741 29.44 277.173 28.702 276.689 28.179 276.199 27.652 275.674 27.204 275.113 26.835V26.835C274.443 26.394 273.829 26.212 273.271 26.288 272.709 26.369 272.264 26.659 271.937 27.157V27.157C271.73 27.472 271.622 27.791 271.615 28.114 271.604 28.443 271.684 28.819 271.856 29.244 272.031 29.663 272.522 30.543 273.329 31.885V31.885C274.396 33.653 274.973 35.102 275.058 36.232 275.147 37.356 274.833 38.462 274.118 39.55ZM295.149 38.725L298.334 41.484 289.884 51.24C288.92 52.353 287.826 53.114 286.602 53.523 285.373 53.926 284.094 53.943 282.766 53.572 281.439 53.211 280.13 52.472 278.841 51.355V51.355C276.904 49.677 275.83 47.877 275.619 45.955 275.409 44.032 276.05 42.208 277.544 40.484V40.484L285.96 30.767 289.145 33.525 281.152 42.753C280.143 43.918 279.636 44.974 279.631 45.922 279.636 46.869 280.177 47.808 281.254 48.741V48.741C282.3 49.647 283.294 50.032 284.236 49.897 285.183 49.756 286.161 49.103 287.17 47.938V47.938ZM302.898 52.133L298.763 55.583 299.632 56.624C300.492 57.655 301.295 58.27 302.041 58.469 302.791 58.673 303.534 58.468 304.271 57.853V57.853C304.997 57.248 305.304 56.568 305.192 55.814 305.085 55.065 304.592 54.164 303.714 53.112V53.112ZM297.569 59.51L296.128 57.781 290.249 62.686 287.537 59.435 302.853 46.657 306.579 51.124C308.312 53.201 309.217 55.056 309.294 56.688 309.37 58.319 308.635 59.78 307.088 61.07V61.07C306.189 61.821 305.183 62.24 304.071 62.33 302.949 62.418 301.813 62.174 300.664 61.599V61.599C299.14 66.777 298.168 70.136 297.747 71.673V71.673L294.738 68.067ZM327.39 84.44L307.504 89.748 305.156 85.551 312.975 78.08C313.254 77.806 313.843 77.28 314.742 76.502 315.647 75.721 316.265 75.219 316.595 74.995V74.995C316.144 75.184 315.389 75.449 314.332 75.79 313.274 76.13 312.516 76.362 312.059 76.484V76.484L301.624 79.237 299.281 75.049 314.205 60.871 316.237 64.504 307.975 72.046C306.44 73.414 305.079 74.545 303.89 75.438V75.438C304.371 75.231 305.133 74.95 306.175 74.595 307.219 74.231 308.045 73.981 308.652 73.845V73.845L319.824 70.916 321.775 74.404 313.438 82.401C313.065 82.759 312.475 83.269 311.669 83.932 310.872 84.598 310.175 85.157 309.58 85.607V85.607C310.245 85.337 311.087 85.031 312.104 84.69 313.131 84.351 313.967 84.091 314.612 83.911V83.911L325.358 80.808ZM315.673 111.124L314.189 106.81 318.211 103.905 315.845 97.025 310.884 97.199 309.403 92.894 330.632 93.037 332.313 97.925ZM319.545 96.883L321.232 101.79C324.866 99.127 326.922 97.627 327.4 97.289 327.875 96.944 328.256 96.683 328.543 96.505V96.505C327.346 96.605 324.346 96.731 319.545 96.883ZM93.481 195.726L72.637 197.683 71.829 195.506 83.108 186.97C83.6 186.583 84.235 186.117 85.012 185.573 85.783 185.031 86.253 184.722 86.422 184.645V184.645C85.209 184.883 83.848 185.044 82.338 185.129V185.129L68.341 186.102 67.533 183.925 84.621 171.842 85.489 174.184 74.895 181.523C73.403 182.544 72.025 183.398 70.76 184.087V184.087C72.433 183.729 74.109 183.502 75.79 183.405V183.405L88.581 182.517 89.449 184.859 79.143 192.738C77.953 193.647 76.567 194.559 74.985 195.475V195.475C76.278 195.178 77.89 194.934 79.822 194.744V194.744L92.613 193.385ZM89.522 223.688L87.757 224.839 81.6 215.396 98.541 204.351 104.698 213.794 102.951 214.933 98.074 207.453 92.616 211.011 97.196 218.035 95.457 219.169 90.877 212.144 84.645 216.208ZM98.047 236.733L112.354 222.439 116.392 226.481C118.285 228.376 119.372 230.031 119.652 231.445 119.933 232.86 119.46 234.18 118.234 235.405V235.405C117.386 236.252 116.451 236.717 115.428 236.799 114.401 236.876 113.355 236.541 112.29 235.795V235.795L112.188 235.896C113.984 238.44 113.928 240.666 112.018 242.574V242.574C110.739 243.852 109.309 244.419 107.73 244.273 106.151 244.127 104.584 243.276 103.03 241.72V241.72ZM112.57 225.535L107.881 230.22 110.62 232.96C111.796 234.138 112.828 234.797 113.714 234.938 114.596 235.084 115.473 234.721 116.345 233.849V233.849C117.15 233.045 117.443 232.181 117.226 231.255 117.003 230.325 116.267 229.235 115.018 227.985V227.985ZM109.326 234.471L106.478 231.621 101.121 236.974 104.106 239.962C105.259 241.116 106.351 241.763 107.382 241.904 108.414 242.035 109.405 241.626 110.355 240.677V240.677C111.242 239.791 111.596 238.841 111.417 237.829 111.243 236.812 110.546 235.692 109.326 234.471ZM155.061 262.499V262.499C153.673 265.533 151.786 267.476 149.399 268.327 147.019 269.182 144.281 268.901 141.185 267.484V267.484L136.093 265.153 144.509 246.764 150.143 249.343C153.002 250.651 154.861 252.459 155.719 254.765 156.581 257.081 156.361 259.659 155.061 262.499ZM152.757 261.535V261.535C153.854 259.136 154.08 257.055 153.434 255.29 152.787 253.525 151.277 252.099 148.904 251.013V251.013L145.792 249.589 139.07 264.278 141.677 265.471C144.225 266.637 146.427 266.888 148.283 266.223 150.139 265.558 151.63 263.995 152.757 261.535ZM177.464 276.491L177.018 278.55 166.001 276.164 170.281 256.399 181.299 258.785 180.857 260.823 172.129 258.933 170.75 265.301 178.946 267.076 178.506 269.104 170.311 267.33 168.736 274.601ZM199.672 272.484L204.233 259.462 206.761 259.45 199.574 279.709 197.241 279.72 189.898 259.532 192.385 259.52 197.104 272.579C197.645 274.083 198.077 275.544 198.399 276.96V276.96C198.721 275.465 199.145 273.973 199.672 272.484ZM231.266 273.801L231.661 275.871 220.587 277.981 216.801 258.115 227.874 256.005 228.265 258.054 219.493 259.726 220.713 266.126 228.95 264.556 229.338 266.595 221.101 268.165 222.494 275.473ZM256.956 266.685L246.509 270.921 238.91 252.18 241.081 251.299 247.881 268.069 256.157 264.714ZM278.465 241.038V241.038C280.3 243.709 281.066 246.27 280.763 248.722 280.465 251.179 279.115 253.232 276.715 254.88V254.88C274.258 256.567 271.848 257.117 269.484 256.53 267.114 255.947 264.99 254.289 263.113 251.556V251.556C261.247 248.84 260.47 246.274 260.781 243.858 261.095 241.448 262.484 239.397 264.946 237.706V237.706C267.34 236.062 269.734 235.536 272.127 236.128 274.514 236.724 276.627 238.361 278.465 241.038ZM265.183 250.159V250.159C266.734 252.418 268.391 253.803 270.154 254.312 271.913 254.816 273.71 254.438 275.546 253.178V253.178C277.392 251.909 278.388 250.37 278.532 248.559 278.676 246.748 277.971 244.71 276.415 242.445V242.445C274.876 240.203 273.237 238.827 271.499 238.317 269.762 237.798 267.974 238.17 266.133 239.435V239.435C264.286 240.703 263.284 242.251 263.127 244.079 262.969 245.908 263.655 247.934 265.183 250.159ZM293.938 219.383V219.383C295.443 220.773 296.126 222.356 295.988 224.131 295.85 225.906 294.898 227.749 293.132 229.662V229.662L291.514 231.413 297.357 236.81 295.767 238.531 280.911 224.809 284.467 220.959C287.897 217.245 291.054 216.72 293.938 219.383ZM283.995 224.469L290.027 230.04 291.463 228.485C292.881 226.95 293.659 225.612 293.798 224.472 293.937 223.332 293.461 222.258 292.369 221.249V221.249C291.387 220.343 290.357 219.989 289.279 220.187 288.206 220.389 287.04 221.172 285.78 222.536V222.536ZM317.307 205.7L319.108 206.792 313.263 216.432 295.97 205.946 301.815 196.307 303.599 197.388 298.969 205.024 304.54 208.402 308.887 201.232 310.662 202.308 306.315 209.479 312.676 213.336ZM319.602 183.379L318.205 187.365 326.148 190.149 325.373 192.36 306.287 185.671 308.119 180.444C308.942 178.097 309.995 176.52 311.28 175.715 312.57 174.911 314.118 174.825 315.921 175.458V175.458C318.443 176.341 319.701 178.22 319.696 181.093V181.093L330.084 178.919 329.166 181.537ZM309.002 184.139L316.304 186.699 317.372 183.654C317.92 182.089 318.013 180.83 317.651 179.875 317.28 178.925 316.473 178.232 315.232 177.797V177.797C313.971 177.355 312.933 177.408 312.116 177.957 311.291 178.51 310.59 179.607 310.015 181.249V181.249ZM60.681 142.258C60.681 137.991 64.14 134.532 68.407 134.532 72.674 134.532 76.133 137.991 76.133 142.258 76.133 146.525 72.674 149.984 68.407 149.984 64.14 149.984 60.681 146.525 60.681 142.258ZM319.387 142.258C319.387 137.991 322.846 134.532 327.113 134.532 331.38 134.532 334.839 137.991 334.839 142.258 334.839 146.525 331.38 149.984 327.113 149.984 322.846 149.984 319.387 146.525 319.387 142.258Z" fill="#fefefe" data-fill-palette-color="primary"></path></svg></g></svg></g></svg></g></svg></g><defs></defs></svg><rect width="395.52" height="279.72" fill="none" stroke="none" visibility="hidden"></rect></g></svg></g></svg>